<!DOCTYPE svg PUBLIC "-//W3C//DTD SVG 20000303 Stylable//EN" "http://www.w3.org/TR/2000/03/WD-SVG-20000303/DTD/svg-20000303-stylable.dtd"[]>
<svg xmlns="http://www.w3.org/2000/svg" width="64px" height="64px" xmlns:xlink="http://www.w3.org/1999/xlink" viewBox="0 0 391 391" shape-rendering="geometricPrecision" text-rendering="geometricPrecision">
<style><![CDATA[
#e2uBMnoDzKx3_to {animation: e2uBMnoDzKx3_to__to 1000ms linear infinite normal forwards}@keyframes e2uBMnoDzKx3_to__to { 0% {transform: translate(194px,342px)} 60% {transform: translate(287.488446px,342px)} 100% {transform: translate(195.5px,342px)}} #e2uBMnoDzKx7_to {animation: e2uBMnoDzKx7_to__to 1000ms linear infinite normal forwards}@keyframes e2uBMnoDzKx7_to__to { 0% {transform: translate(195.5px,342px)} 40% {transform: translate(95.000167px,342px)} 100% {transform: translate(195.5px,342px)}}
]]></style>
<g>
<g id="e2uBMnoDzKx3_to" transform="translate(194,342)">
<g transform="scale(0.994205,1) translate(-195.5,-342)">
<path style="fill:#007e00;stroke:#4c4c4c;stroke-width:2" d="M49,391 l-10,-1 -9,-3 -8,-4 -8,-6 -6,-8 -4,-8 -3,-9 -1,-10 1,-10 3,-9 4,-8 6,-8 8,-6 8,-4 9,-3 10,-1 146,49 -146,49z" />
<path style="fill:#319831" d="M49,383 l-10,-1 -9,-2 -8,-4 -8,-5 -6,-6 -4,-7 -3,-8 -1,-8 1,-8 3,-8 4,-7 6,-6 8,-5 8,-4 9,-2 10,-1 146,41 -146,41z" />
<ellipse style="fill:#63b163" cx="97" cy="342" rx="97" ry="24" />
</g></g>
<g id="e2uBMnoDzKx7_to" transform="translate(195.5,342)"><g transform="scale(1,-1) translate(-195.5,-342)">
<path style="fill:#007e00;stroke:#4c4c4c;stroke-width:2" d="M342,391 l10,-1 9,-3 8,-4 8,-6 6,-8 4,-8 3,-9 1,-10 -1,-10 -3,-9 -4,-8 -6,-8 -8,-6 -8,-4 -9,-3 -10,-1 -147,49 147,49z" />
<path style="fill:#319831" d="M342,383 l10,-1 9,-2 8,-4 8,-5 6,-6 4,-7 3,-8 1,-8 -1,-8 -3,-8 -4,-7 -6,-6 -8,-5 -8,-4 -9,-2 -10,-1 -147,41 147,41z" />
<ellipse style="fill:#63b163" cx="293" cy="342" rx="98" ry="24" />
</g>
</g>
</g>
<path style="fill:#007e00;stroke:#4c4c4c;stroke-width:2" d="M174,318 l0,-318 43,0 0,318 5,5 3,6 2,6 1,7 -1,7 -2,6 -3,5 -4,5 -5,4 -5,3 -6,2 -7,1 -6,-1 -6,-2 -6,-3 -4,-4 -4,-5 -3,-5 -2,-6 -1,-7 1,-7 2,-6 3,-6 5,-5z" />
<path style="fill:#319831" d="M176,317 l0,-313 39,0 0,313 4,4 2,5 2,6 1,6 -2,11 -7,9 -9,7 -11,2 -11,-2 -9,-7 -6,-9 -2,-11 1,-6 2,-6 2,-5 4,-4z" />
<path style="fill:#63b163" d="M181,316 l0,-308 29,0 0,308 3,3 3,4 1,4 1,5 -2,8 -5,7 -7,5 -9,2 -9,-2 -7,-5 -4,-7 -2,-8 1,-5 1,-4 3,-4 3,-3z" />
</svg>
